<?xml version="1.0" standalone="no"?>
<!DOCTYPE svg PUBLIC "-//W3C//DTD SVG 20010904//EN"
 "http://www.w3.org/TR/2001/REC-SVG-20010904/DTD/svg10.dtd">
<svg version="1.0" xmlns="http://www.w3.org/2000/svg"
 width="1280.000000pt" height="640.000000pt" viewBox="0 0 1280.000000 640.000000"
 preserveAspectRatio="xMidYMid meet">
<metadata>
Created by potrace 1.15, written by Peter Selinger 2001-2017
</metadata>
<g transform="translate(0.000000,640.000000) scale(0.100000,-0.100000)"
fill="#000000" stroke="none">
<path d="M10478 5774 c-278 -14 -289 -15 -371 -45 -73 -26 -91 -37 -127 -80
-22 -27 -62 -86 -88 -132 -70 -124 -178 -278 -375 -532 -185 -239 -418 -498
-440 -489 -15 5 -172 -105 -202 -141 -11 -14 -120 -87 -241 -164 l-222 -139
-98 -16 c-55 -8 -225 -23 -379 -31 l-280 -16 -360 40 c-392 44 -892 75 -1382
86 -221 5 -322 2 -470 -11 -174 -15 -205 -21 -417 -80 -181 -50 -284 -86 -500
-175 -360 -148 -760 -339 -1093 -522 -262 -143 -278 -151 -405 -183 -73 -19
-220 -46 -326 -59 -517 -68 -880 -42 -1312 91 -113 35 -186 66 -329 141 -346
179 -515 294 -882 597 -90 74 -166 133 -171 130 -16 -10 27 -94 94 -184 110
-145 265 -298 453 -445 240 -187 416 -297 639 -400 414 -190 572 -224 1076
-232 345 -6 534 6 853 52 93 14 176 25 186 25 15 0 16 -8 8 -92 -7 -75 -5
-109 8 -175 16 -77 23 -91 101 -197 46 -63 108 -165 139 -226 55 -110 56 -113
46 -160 -6 -27 -23 -68 -37 -93 -24 -39 -34 -47 -86 -61 -32 -9 -90 -16 -129
-16 -61 0 -79 -4 -124 -30 -70 -40 -85 -81 -85 -236 0 -100 -5 -129 -43 -276
-37 -140 -51 -176 -92 -242 l-48 -78 -186 3 c-167 3 -189 1 -214 -15 -26 -17
-27 -22 -21 -65 9 -63 14 -70 92 -139 43 -39 97 -74 147 -97 l79 -35 184 24
c133 18 192 31 215 45 25 15 65 80 180 288 229 418 246 443 300 479 42 28 58
32 150 37 100 7 361 47 425 66 34 10 42 2 17 -19 -22 -19 -55 -98 -65 -155
-12 -75 7 -111 87 -165 280 -189 623 -468 683 -555 41 -60 69 -65 367 -65 229
0 252 2 303 21 30 12 78 24 105 28 l50 6 -1 67 c0 61 -5 74 -45 140 -51 84
-146 168 -190 168 -15 0 -59 -11 -97 -25 -38 -14 -78 -25 -88 -25 -37 0 -171
87 -374 244 -212 163 -239 192 -239 256 -1 30 11 47 76 119 42 46 136 134 208
196 129 110 133 115 194 226 35 63 67 118 72 123 5 6 71 17 146 26 128 14 150
14 294 -1 414 -45 763 -124 1234 -279 149 -49 327 -101 398 -116 l127 -28 0
-36 c0 -19 -7 -90 -15 -156 -16 -133 -43 -210 -78 -223 -12 -4 -54 -3 -93 2
-59 9 -80 7 -122 -6 -70 -23 -124 -21 -222 8 -96 29 -197 34 -206 10 -11 -27
28 -169 69 -251 l40 -81 145 -72 146 -73 150 -14 c149 -15 152 -15 231 8 l80
23 217 324 c217 324 409 572 373 484 -4 -10 -13 -56 -20 -103 -12 -78 -11 -89
7 -137 10 -28 24 -56 31 -61 7 -5 55 -22 107 -37 114 -33 99 -25 290 -143 151
-92 161 -101 375 -312 123 -122 233 -222 250 -228 53 -19 293 -30 574 -27 274
3 275 3 292 27 21 26 17 51 -16 118 -28 56 -59 85 -155 146 -125 79 -148 86
-248 79 -81 -6 -93 -5 -174 25 l-87 32 -144 201 c-146 204 -257 400 -257 453
0 18 21 49 68 103 37 42 84 102 105 133 32 50 38 69 48 155 l12 98 108 110
c59 61 176 191 259 290 129 153 172 214 292 413 78 127 144 232 148 232 3 0
14 -24 24 -52 17 -53 17 -53 -8 -124 -14 -39 -26 -76 -26 -82 0 -18 176 -317
185 -315 10 2 95 313 95 346 0 11 -27 57 -61 103 l-61 85 11 46 c10 38 9 55
-5 99 -16 51 -16 53 5 82 11 17 21 42 21 56 0 16 20 53 51 95 l52 69 35 -47
c63 -82 89 -101 139 -101 39 0 50 5 80 36 50 54 111 147 148 228 39 84 55 184
55 335 l0 108 53 50 c103 97 230 146 582 223 107 23 273 69 380 105 132 44
232 70 325 86 l135 23 72 69 c55 53 95 107 172 233 56 90 101 168 101 173 0 5
16 33 36 62 25 36 38 69 41 99 10 96 -66 133 -227 113 -83 -11 -880 29 -940
46 -25 8 -62 40 -127 110 -57 61 -113 111 -147 130 l-56 31 -267 -1 c-148 -1
-397 -8 -555 -15z m-208 -2445 c0 -24 -4 -38 -10 -34 -6 3 -14 -4 -19 -17 -9
-23 -11 -21 -24 22 -5 16 29 70 44 70 5 0 9 -18 9 -41z"/>
</g>
</svg>
